<svg width="18" height="21" viewBox="0 0 18 21" fill="none" xmlns="http://www.w3.org/2000/svg">
<path d="M0.890211 7.67422C0.890211 6.80953 1.04849 5.99264 1.36038 5.23021C1.65837 4.48967 2.10111 3.81 2.66499 3.22743C3.22773 2.6525 3.87169 2.15535 4.57826 1.75035C5.3032 1.33152 6.08804 1.01553 6.90817 0.812313C7.7382 0.604168 8.59288 0.499198 9.45105 0.500005C10.7766 0.500005 12.0102 0.767857 13.1542 1.30134C14.2833 1.82509 15.2443 2.62887 15.9369 3.62865C16.6514 4.6456 17.0064 5.79592 17.0064 7.0785C17.0064 7.8476 16.9272 8.60003 16.7655 9.33579C16.6066 10.0711 16.3542 10.7852 16.0137 11.4619C15.6891 12.1171 15.2648 12.7227 14.7544 13.2591C14.2415 13.787 13.6204 14.2084 12.9296 14.4972C12.1797 14.8111 11.3684 14.9691 10.5497 14.9607C9.98058 14.9607 9.41265 14.8329 8.8517 14.5761C8.29075 14.3205 7.88808 13.9693 7.64601 13.5192C7.56106 13.8315 7.44468 14.2827 7.28989 14.8729C7.14093 15.4619 7.04084 15.842 6.99662 16.0143C6.95007 16.1855 6.86395 16.4711 6.73826 16.8668C6.65302 17.1595 6.54367 17.4452 6.41123 17.7215L6.01089 18.4705C5.83775 18.792 5.6442 19.103 5.43132 19.4019C5.22067 19.6931 4.95999 20.041 4.64925 20.4411L4.47585 20.5L4.36063 20.38C4.23611 19.1207 4.1721 18.3672 4.1721 18.1182C4.1721 17.3814 4.26404 16.5545 4.44559 15.6364C4.62365 14.7195 4.90529 13.567 5.28352 12.181C5.66175 10.7962 5.87822 9.98152 5.9364 9.74035C5.6699 9.22131 5.5349 8.54335 5.5349 7.70978C5.5349 7.04404 5.75253 6.42054 6.18895 5.83371C6.62653 5.2491 7.17933 4.9568 7.84968 4.9568C8.36291 4.9568 8.76092 5.11906 9.04605 5.44471C9.33235 5.76924 9.472 6.17825 9.472 6.67727C9.472 7.20631 9.28812 7.97208 8.91804 8.97347C8.54795 9.97597 8.36407 10.724 8.36407 11.2208C8.36407 11.7242 8.5526 12.1455 8.92967 12.4756C9.30179 12.8058 9.7939 12.9848 10.3018 12.9746C10.7626 12.9746 11.1898 12.8745 11.5866 12.6734C11.9773 12.4781 12.3154 12.1993 12.5747 11.8587C13.1394 11.1188 13.5419 10.2777 13.7582 9.3858C13.87 8.91678 13.9561 8.47111 14.0096 8.0521C14.0666 7.63087 14.0911 7.23298 14.0911 6.8551C14.0911 5.46916 13.6302 4.38886 12.7143 3.61531C11.7938 2.84177 10.5951 2.45721 9.12053 2.45721C7.44351 2.45721 6.04115 2.97514 4.91809 4.01431C3.79387 5.05016 3.22827 6.36719 3.22827 7.9643C3.22827 8.31662 3.28413 8.65671 3.39003 8.98569C3.49361 9.31356 3.6065 9.57474 3.72869 9.76813C3.84973 9.95818 3.96378 10.1438 4.06736 10.315C4.1721 10.4861 4.2268 10.6084 4.2268 10.6817C4.2268 10.9062 4.16512 11.1985 4.04059 11.5597C3.91141 11.921 3.75895 12.101 3.57507 12.101C3.55762 12.101 3.48546 12.0888 3.35977 12.0632C2.92447 11.9391 2.53136 11.7071 2.22042 11.3908C1.89042 11.063 1.62998 10.6773 1.45348 10.2549C1.27749 9.8341 1.14042 9.39935 1.04383 8.95568C0.939476 8.53588 0.887905 8.10569 0.890211 7.67422Z" fill="#E5BE49"/>
</svg>
