<svg width="25" height="25" viewBox="0 0 25 25" fill="none" xmlns="http://www.w3.org/2000/svg">
<path d="M12.479 0.5C6.17902 0.5 1.01182 5.36 0.522217 11.5364L6.95422 14.1956C7.51745 13.8108 8.18371 13.6051 8.86582 13.6052C8.92942 13.6052 8.99182 13.6088 9.05422 13.6112L11.915 9.4688V9.41C11.915 6.914 13.943 4.886 16.439 4.886C17.6387 4.88791 18.7886 5.36548 19.6367 6.214C20.4848 7.06252 20.9617 8.21273 20.963 9.4124C20.9621 10.6121 20.4852 11.7623 19.637 12.6107C18.7888 13.4591 17.6387 13.9363 16.439 13.9376H16.3346L12.2582 16.8488C12.2582 16.9004 12.2618 16.9544 12.2618 17.0084C12.2624 17.4539 12.1753 17.8952 12.0053 18.3071C11.8353 18.7189 11.5858 19.0932 11.2711 19.4086C10.9564 19.724 10.5826 19.9742 10.1711 20.1451C9.75967 20.316 9.31856 20.4041 8.87302 20.4044C8.08913 20.4013 7.33019 20.1285 6.72377 19.6318C6.11734 19.1351 5.7004 18.4447 5.54302 17.6768L0.937417 15.77C2.36182 20.8064 6.98662 24.5 12.4802 24.5C19.1066 24.5 24.4778 19.1276 24.4778 12.5C24.4778 5.8736 19.1054 0.5 12.479 0.5ZM6.56902 18.1004C6.83062 18.6428 7.28302 19.0988 7.88302 19.3496C8.34834 19.542 8.86021 19.5925 9.35414 19.4945C9.84807 19.3966 10.302 19.1547 10.6587 18.7993C11.0154 18.4438 11.2589 17.9908 11.3586 17.4972C11.4583 17.0037 11.4098 16.4916 11.219 16.0256C10.9668 15.4131 10.4859 14.923 9.87836 14.6591C9.27083 14.3952 8.5844 14.3783 7.96462 14.612L9.48742 15.2432C9.94228 15.4381 10.3018 15.8046 10.488 16.2631C10.6741 16.7217 10.6717 17.2351 10.4813 17.6919C10.291 18.1486 9.928 18.5118 9.47135 18.7025C9.0147 18.8931 8.50125 18.8958 8.04262 18.71L6.56902 18.1004ZM19.457 9.4064C19.4557 8.60711 19.1376 7.84095 18.5723 7.27588C18.007 6.71081 17.2407 6.39295 16.4414 6.392C15.8449 6.392 15.2619 6.56889 14.7659 6.9003C14.27 7.23172 13.8835 7.70276 13.6552 8.25386C13.427 8.80496 13.3674 9.41135 13.4838 9.99636C13.6003 10.5814 13.8876 11.1187 14.3095 11.5404C14.7313 11.9621 15.2688 12.2492 15.8538 12.3654C16.4389 12.4816 17.0453 12.4217 17.5963 12.1933C18.1473 11.9649 18.6182 11.5782 18.9494 11.0821C19.2806 10.586 19.4573 10.0029 19.457 9.4064ZM16.4474 7.136C17.0481 7.13664 17.624 7.37554 18.0487 7.80028C18.4735 8.22503 18.7124 8.80092 18.713 9.4016C18.7124 10.0023 18.4735 10.5782 18.0487 11.0029C17.624 11.4277 17.0481 11.6666 16.4474 11.6672C15.8465 11.6672 15.2703 11.4285 14.8454 11.0036C14.4205 10.5787 14.1818 10.0025 14.1818 9.4016C14.1818 8.80073 14.4205 8.22446 14.8454 7.79958C15.2703 7.3747 15.8465 7.136 16.4474 7.136Z" fill="#121412"/>
</svg>
