<svg width="22" height="17" viewBox="0 0 22 17" fill="none" xmlns="http://www.w3.org/2000/svg">
<path d="M21.157 2.43007C20.3869 2.74734 19.5488 2.97567 18.6855 3.06461C19.5818 2.5561 20.2529 1.75274 20.5731 0.805262C19.7321 1.28306 18.8107 1.61811 17.8499 1.79553C17.4483 1.38554 16.9627 1.05893 16.4231 0.836045C15.8836 0.613158 15.3018 0.49877 14.714 0.50001C12.3356 0.50001 10.4228 2.34114 10.4228 4.60048C10.4228 4.91775 10.4631 5.23502 10.5285 5.54027C6.96721 5.36241 3.79099 3.7376 1.67939 1.24992C1.29463 1.87753 1.093 2.59213 1.09548 3.31938C1.09548 4.74229 1.85305 5.99695 3.00826 6.73484C2.32748 6.70923 1.66263 6.53053 1.0678 6.21327V6.26374C1.0678 8.25629 2.54265 9.90753 4.50828 10.2873C4.13922 10.3788 3.75955 10.4257 3.37823 10.4267C3.09887 10.4267 2.8346 10.4003 2.56782 10.3642C3.11145 11.989 4.69453 13.1692 6.57962 13.2076C5.10477 14.3109 3.25743 14.9598 1.25153 14.9598C0.891623 14.9598 0.559403 14.9478 0.2146 14.9093C2.11731 16.0751 4.37489 16.7481 6.80614 16.7481C14.6989 16.7481 19.0177 10.5036 19.0177 5.08359C19.0177 4.90573 19.0177 4.72787 19.0051 4.55C19.8407 3.96594 20.5731 3.24247 21.157 2.43007Z" fill="#E5BE49"/>
</svg>
