<svg width="20" height="20" viewBox="0 0 20 20" fill="none" xmlns="http://www.w3.org/2000/svg">
<path d="M9.95028 6.83198C8.12366 6.83198 6.63299 8.25557 6.63299 10C6.63299 11.7444 8.12366 13.168 9.95028 13.168C11.7769 13.168 13.2676 11.7444 13.2676 10C13.2676 8.25557 11.7769 6.83198 9.95028 6.83198ZM19.8997 10C19.8997 8.68811 19.9121 7.38811 19.835 6.0786C19.7578 4.55757 19.3945 3.20766 18.2298 2.09541C17.0627 0.980781 15.6516 0.636173 14.0589 0.562499C12.6852 0.488824 11.324 0.500707 9.95277 0.500707C8.57907 0.500707 7.21781 0.488824 5.84659 0.562499C4.25389 0.636173 2.84037 0.983158 1.67571 2.09541C0.508563 3.21004 0.147717 4.55757 0.0705705 6.0786C-0.00657583 7.39049 0.00586717 8.69049 0.00586717 10C0.00586717 11.3095 -0.00657583 12.6119 0.0705705 13.9214C0.147717 15.4424 0.511051 16.7923 1.67571 17.9046C2.84286 19.0192 4.25389 19.3638 5.84659 19.4375C7.2203 19.5112 8.58156 19.4993 9.95277 19.4993C11.3265 19.4993 12.6877 19.5112 14.0589 19.4375C15.6516 19.3638 17.0652 19.0168 18.2298 17.9046C19.397 16.79 19.7578 15.4424 19.835 13.9214C19.9146 12.6119 19.8997 11.3119 19.8997 10V10ZM9.95028 14.8744C7.12573 14.8744 4.84618 12.6974 4.84618 10C4.84618 7.30255 7.12573 5.12558 9.95028 5.12558C12.7748 5.12558 15.0544 7.30255 15.0544 10C15.0544 12.6974 12.7748 14.8744 9.95028 14.8744ZM15.2634 6.06434C14.604 6.06434 14.0714 5.55575 14.0714 4.92595C14.0714 4.29615 14.604 3.78755 15.2634 3.78755C15.9229 3.78755 16.4555 4.29615 16.4555 4.92595C16.4557 5.0755 16.425 5.22361 16.3651 5.36181C16.3053 5.50001 16.2175 5.62558 16.1068 5.73133C15.996 5.83708 15.8645 5.92093 15.7198 5.97807C15.5751 6.03521 15.42 6.06453 15.2634 6.06434V6.06434Z" fill="#E5BE49"/>
</svg>
