<svg width="23" height="23" viewBox="0 0 23 23" fill="none" xmlns="http://www.w3.org/2000/svg">
<path d="M21.6368 17.83C21.6368 18.19 21.5568 18.56 21.3868 18.92C21.2168 19.28 20.9968 19.62 20.7068 19.94C20.2168 20.48 19.6768 20.87 19.0668 21.12C18.4668 21.37 17.8168 21.5 17.1168 21.5C16.0968 21.5 15.0068 21.26 13.8568 20.77C12.7068 20.28 11.5568 19.62 10.4168 18.79C9.26675 17.95 8.17675 17.02 7.13675 15.99C6.10675 14.95 5.17675 13.86 4.34675 12.72C3.52675 11.58 2.86675 10.44 2.38675 9.31C1.90675 8.17 1.66675 7.08 1.66675 6.04C1.66675 5.36 1.78675 4.71 2.02675 4.11C2.26675 3.5 2.64675 2.94 3.17675 2.44C3.81675 1.81 4.51675 1.5 5.25675 1.5C5.53675 1.5 5.81675 1.56 6.06675 1.68C6.32675 1.8 6.55675 1.98 6.73675 2.24L9.05675 5.51C9.23675 5.76 9.36675 5.99 9.45675 6.21C9.54675 6.42 9.59675 6.63 9.59675 6.82C9.59675 7.06 9.52675 7.3 9.38675 7.53C9.25675 7.76 9.06675 8 8.82675 8.24L8.06675 9.03C7.95675 9.14 7.90675 9.27 7.90675 9.43C7.90675 9.51 7.91675 9.58 7.93675 9.66C7.96675 9.74 7.99675 9.8 8.01675 9.86C8.19675 10.19 8.50675 10.62 8.94675 11.14C9.39675 11.66 9.87675 12.19 10.3967 12.72C10.9367 13.25 11.4568 13.74 11.9868 14.19C12.5068 14.63 12.9368 14.93 13.2768 15.11C13.3268 15.13 13.3868 15.16 13.4568 15.19C13.5368 15.22 13.6168 15.23 13.7068 15.23C13.8768 15.23 14.0068 15.17 14.1168 15.06L14.8768 14.31C15.1268 14.06 15.3668 13.87 15.5968 13.75C15.8268 13.61 16.0568 13.54 16.3068 13.54C16.4968 13.54 16.6968 13.58 16.9168 13.67C17.1368 13.76 17.3668 13.89 17.6168 14.06L20.9268 16.41C21.1868 16.59 21.3668 16.8 21.4768 17.05C21.5768 17.3 21.6368 17.55 21.6368 17.83Z" stroke="white" stroke-width="1.5" stroke-miterlimit="10"/>
</svg>
