<svg width="23" height="21" viewBox="0 0 23 21" fill="none" xmlns="http://www.w3.org/2000/svg">
<path d="M1 11.4323V9.56769C1 8.46586 1.90053 7.55474 3.01295 7.55474C4.93054 7.55474 5.71453 6.19865 4.75044 4.53532C4.19953 3.58182 4.52795 2.34227 5.49205 1.79136L7.32489 0.742508C8.16185 0.244569 9.24249 0.541214 9.74042 1.37818L9.85696 1.57947C10.8105 3.2428 12.3784 3.2428 13.3425 1.57947L13.4591 1.37818C13.957 0.541214 15.0377 0.244569 15.8746 0.742508L17.7075 1.79136C18.6715 2.34227 19 3.58182 18.4491 4.53532C17.485 6.19865 18.269 7.55474 20.1866 7.55474C21.2884 7.55474 22.1995 8.45527 22.1995 9.56769V11.4323C22.1995 12.5341 21.299 13.4453 20.1866 13.4453C18.269 13.4453 17.485 14.8013 18.4491 16.4647C19 17.4288 18.6715 18.6577 17.7075 19.2086L15.8746 20.2575C15.0377 20.7554 13.957 20.4588 13.4591 19.6218L13.3425 19.4205C12.389 17.7572 10.8211 17.7572 9.85696 19.4205L9.74042 19.6218C9.24249 20.4588 8.16185 20.7554 7.32489 20.2575L5.49205 19.2086C4.52795 18.6577 4.19953 17.4182 4.75044 16.4647C5.71453 14.8013 4.93054 13.4453 3.01295 13.4453C1.90053 13.4453 1 12.5341 1 11.4323Z" fill="#A7B0A0" stroke="#151714" stroke-miterlimit="10" stroke-linecap="round" stroke-linejoin="round"/>
<path d="M11.5953 13.677C13.3507 13.677 14.7737 12.254 14.7737 10.4986C14.7737 8.7433 13.3507 7.32031 11.5953 7.32031C9.83998 7.32031 8.41699 8.7433 8.41699 10.4986C8.41699 12.254 9.83998 13.677 11.5953 13.677Z" stroke="#151714" stroke-miterlimit="10" stroke-linecap="round" stroke-linejoin="round"/>
</svg>